<?xml version="1.0" standalone="no"?>
<!DOCTYPE svg PUBLIC "-//W3C//DTD SVG 20010904//EN"
 "http://www.w3.org/TR/2001/REC-SVG-20010904/DTD/svg10.dtd">
<svg version="1.0" xmlns="http://www.w3.org/2000/svg"
 width="768.000000pt" height="768.000000pt" viewBox="0 0 768.000000 768.000000"
 preserveAspectRatio="xMidYMid meet">
<metadata>
Created by potrace 1.11, written by Peter Selinger 2001-2013
</metadata>
<g transform="translate(0.000000,768.000000) scale(0.100000,-0.100000)"
fill="#000000" stroke="none">
<path d="M2537 7644 c-1 -1 -29 -4 -63 -7 -92 -9 -151 -25 -242 -68 -184 -88
-298 -261 -348 -528 -23 -121 -23 -123 -29 -151 -2 -14 -7 -41 -10 -60 -3 -19
-8 -48 -12 -65 -3 -16 -7 -39 -8 -50 -2 -11 -10 -58 -20 -105 -9 -47 -18 -101
-21 -120 -2 -19 -6 -42 -9 -50 -2 -8 -7 -31 -10 -50 -9 -58 -85 -481 -95 -535
-18 -94 -50 -270 -55 -310 -4 -22 -8 -47 -10 -55 -3 -8 -7 -33 -10 -55 -4 -22
-8 -47 -10 -55 -2 -8 -13 -67 -25 -130 -11 -63 -22 -128 -25 -145 -12 -62 -55
-301 -60 -330 -2 -16 -7 -41 -10 -55 -3 -14 -7 -38 -10 -55 -2 -16 -13 -82
-25 -145 -27 -151 -28 -155 -40 -225 -6 -33 -15 -80 -20 -105 -6 -25 -12 -61
-14 -80 -2 -19 -7 -46 -10 -60 -3 -14 -8 -38 -11 -55 -6 -39 -54 -302 -60
-335 -3 -14 -7 -36 -10 -50 -2 -14 -7 -41 -10 -60 -6 -40 -23 -133 -30 -170
-7 -36 -23 -129 -30 -170 -3 -19 -12 -69 -20 -110 -8 -41 -17 -91 -20 -110 -7
-46 -24 -138 -30 -170 -3 -14 -8 -41 -11 -60 -3 -19 -7 -42 -9 -50 -2 -8 -7
-31 -10 -50 -4 -19 -17 -98 -31 -175 -14 -77 -29 -165 -34 -195 -6 -30 -12
-66 -15 -80 -3 -14 -7 -38 -10 -55 -8 -49 -13 -77 -24 -135 -6 -30 -13 -68
-16 -85 -2 -16 -32 -180 -65 -363 -33 -183 -63 -350 -66 -370 -3 -20 -7 -44
-9 -52 -2 -8 -7 -30 -10 -47 -3 -18 -7 -48 -10 -65 -3 -18 -8 -40 -10 -48 -2
-8 -6 -33 -10 -55 -5 -38 -49 -282 -60 -335 -10 -46 -7 -185 5 -235 40 -174
182 -277 412 -300 35 -3 420 -8 856 -10 l793 -3 9 22 c4 13 11 47 15 77 4 30
9 57 11 60 2 3 6 26 9 50 3 24 8 53 12 64 3 11 7 31 8 45 2 22 27 166 41 240
2 14 7 42 10 62 l6 38 -304 0 c-273 0 -307 2 -343 19 -52 23 -87 55 -115 105
-30 55 -35 112 -16 213 8 49 17 99 20 113 2 14 15 86 29 160 14 74 28 151 31
170 3 19 10 60 16 90 6 30 13 70 16 89 3 18 8 43 10 55 8 39 36 201 39 221 2
11 13 72 24 135 12 63 28 151 36 195 8 44 17 96 20 115 3 19 8 42 10 50 2 8 6
31 9 50 3 19 13 73 21 120 14 73 37 206 50 275 3 19 38 216 50 280 3 17 12 68
20 115 9 47 18 97 20 110 3 14 8 39 11 55 2 17 16 91 29 165 14 74 27 149 30
165 3 17 7 44 10 60 14 76 105 583 110 610 3 17 7 41 10 54 2 13 20 114 40
225 20 110 38 212 41 226 2 14 11 63 20 110 8 47 17 96 20 110 3 14 6 34 8 45
5 28 21 116 81 450 20 110 42 238 51 285 8 47 16 92 19 100 2 8 6 33 10 55 10
73 15 100 25 145 11 54 41 217 44 245 2 11 6 34 9 50 4 17 9 44 12 60 29 177
69 253 168 318 89 59 103 61 432 63 165 1 303 2 307 3 6 1 19 56 33 136 12 75
85 468 91 490 4 17 2 25 -7 26 -23 1 -1621 4 -1622 3z"/>
<path d="M4876 7630 c-2 -3 -7 -27 -11 -55 -5 -27 -9 -54 -11 -60 -4 -19 -14
-71 -29 -155 -8 -47 -17 -96 -20 -110 -2 -14 -12 -63 -20 -110 -9 -47 -20
-102 -24 -122 -6 -27 -5 -38 3 -39 6 0 143 -1 304 -1 280 -1 295 -2 340 -23
83 -38 143 -131 145 -222 0 -15 -7 -66 -16 -113 -9 -47 -19 -101 -22 -120 -3
-19 -8 -46 -10 -60 -10 -49 -15 -77 -41 -220 -14 -80 -36 -206 -50 -280 -14
-74 -27 -146 -29 -160 -2 -14 -10 -63 -19 -110 -9 -47 -18 -103 -22 -125 -3
-22 -9 -56 -14 -75 -5 -19 -11 -51 -14 -70 -7 -47 -21 -125 -41 -235 -9 -49
-19 -103 -21 -120 -3 -16 -9 -50 -14 -75 -8 -40 -24 -125 -36 -200 -2 -14 -11
-59 -19 -100 -7 -41 -16 -91 -19 -110 -3 -19 -8 -46 -11 -60 -3 -14 -9 -50
-14 -80 -6 -30 -26 -145 -46 -255 -20 -110 -43 -238 -51 -285 -8 -47 -17 -96
-20 -110 -2 -14 -11 -63 -20 -110 -22 -125 -23 -133 -29 -160 -3 -14 -12 -68
-21 -120 -9 -52 -18 -104 -20 -115 -2 -11 -7 -33 -9 -50 -3 -16 -12 -64 -20
-105 -8 -41 -28 -151 -45 -245 -16 -93 -31 -179 -33 -190 -3 -11 -8 -40 -12
-65 -4 -25 -9 -54 -11 -65 -2 -11 -7 -33 -10 -50 -3 -16 -14 -79 -25 -140 -11
-60 -26 -148 -35 -195 -8 -47 -19 -109 -25 -139 -6 -30 -12 -64 -14 -75 -3
-24 -15 -89 -21 -120 -7 -37 -45 -250 -49 -276 -1 -14 -10 -59 -18 -100 -9
-41 -18 -93 -21 -115 -4 -22 -8 -51 -11 -65 -9 -43 -14 -72 -31 -165 -19 -109
-45 -205 -56 -205 -4 0 -8 -6 -8 -14 0 -26 -94 -113 -155 -142 l-60 -29 -325
-5 c-179 -3 -323 -8 -322 -13 3 -6 -8 -84 -23 -168 -8 -44 -48 -277 -50 -296
-2 -12 -6 -34 -9 -50 -3 -15 -8 -44 -11 -63 -3 -19 -8 -43 -11 -52 -3 -10 -2
-19 3 -19 36 -7 1667 -11 1703 -5 312 51 501 252 565 601 11 63 54 301 59 335
4 19 11 58 16 85 5 28 11 61 14 75 2 14 13 77 25 140 11 63 23 131 26 150 3
19 8 42 10 50 2 8 7 35 10 60 4 24 8 47 11 51 2 3 6 26 9 50 6 48 21 134 40
229 2 14 7 41 10 60 3 19 13 73 21 120 9 47 18 96 21 110 6 35 51 288 59 330
4 19 7 42 9 50 1 8 5 29 8 45 4 17 9 46 12 65 3 19 8 42 10 50 2 8 6 33 10 54
5 38 40 237 50 286 3 14 14 77 25 140 11 63 22 126 25 140 3 14 9 50 15 80 5
30 11 65 14 76 2 12 7 39 10 60 6 38 40 228 51 289 9 49 115 635 125 695 6 30
12 65 14 76 2 12 7 37 10 55 3 19 19 107 35 196 17 89 33 182 36 205 3 24 8
50 10 58 2 8 7 31 10 50 3 19 12 71 20 115 8 44 17 94 20 110 2 17 7 39 9 50
2 11 16 88 31 170 15 83 40 221 56 307 15 86 33 185 39 220 13 80 16 100 41
228 11 58 22 121 25 140 3 19 9 58 15 86 5 28 12 64 15 80 24 144 48 275 64
356 37 182 20 353 -42 434 -47 59 -54 66 -113 99 -102 57 -154 66 -405 71
-351 7 -1491 10 -1494 4z"/>
</g>
</svg>
