<?xml version="1.0" standalone="no"?>
<!DOCTYPE svg PUBLIC "-//W3C//DTD SVG 20010904//EN"
 "http://www.w3.org/TR/2001/REC-SVG-20010904/DTD/svg10.dtd">
<svg version="1.0" xmlns="http://www.w3.org/2000/svg"
 width="500.000000pt" height="500.000000pt" viewBox="0 0 500.000000 500.000000"
 preserveAspectRatio="xMidYMid meet">
<metadata>
Created by potrace 1.11, written by Peter Selinger 2001-2013
</metadata>
<g transform="translate(0.000000,500.000000) scale(0.100000,-0.100000)"
fill="#000000" stroke="none">
<path d="M2150 4654 c-225 -76 -407 -190 -580 -363 -121 -122 -206 -237 -278
-377 -39 -77 -100 -240 -108 -294 -2 -14 -8 -45 -14 -70 -8 -43 -33 -197 -65
-415 -4 -22 -15 -96 -26 -165 -11 -69 -22 -141 -25 -160 -9 -63 -14 -94 -24
-150 -13 -73 -18 -106 -25 -160 -3 -25 -12 -83 -20 -130 -8 -47 -17 -105 -20
-130 -3 -25 -17 -110 -30 -190 -13 -80 -27 -167 -30 -195 -4 -27 -8 -57 -10
-65 -2 -8 -7 -35 -10 -60 -3 -25 -10 -70 -15 -100 -6 -30 -13 -75 -16 -100 -3
-25 -9 -64 -14 -87 -12 -67 -10 -251 4 -331 7 -39 12 -72 10 -72 -1 0 13 -43
31 -95 97 -279 299 -488 569 -590 36 -13 68 -21 71 -16 3 5 -23 32 -58 60
-224 177 -387 452 -425 715 -15 110 -6 316 22 491 15 94 29 179 30 190 2 11 6
38 10 60 4 22 8 54 11 70 5 37 12 85 30 195 8 47 17 103 20 125 3 23 7 52 10
65 3 14 12 72 20 130 19 125 39 252 65 415 17 105 23 146 36 230 11 80 15 103
19 121 3 12 7 39 10 60 9 60 35 235 41 269 19 113 66 249 126 370 26 51 97
169 120 200 140 186 353 388 536 506 28 18 52 39 52 46 0 7 -1 13 -2 13 -2 -1
-23 -8 -48 -16z"/>
<path d="M3485 4660 c-3 -4 23 -31 57 -58 233 -187 386 -447 426 -727 14 -92
7 -309 -12 -415 -3 -14 -7 -43 -10 -65 -4 -22 -8 -51 -11 -65 -3 -14 -7 -41
-9 -60 -4 -32 -31 -199 -41 -260 -3 -14 -12 -72 -20 -130 -9 -58 -27 -172 -40
-255 -13 -82 -26 -168 -30 -190 -3 -22 -12 -78 -20 -125 -8 -47 -17 -105 -20
-130 -5 -39 -23 -153 -55 -355 -5 -33 -12 -78 -15 -100 -3 -22 -10 -65 -15
-95 -5 -30 -12 -71 -15 -90 -30 -189 -64 -298 -137 -445 -29 -56 -133 -224
-147 -235 -3 -3 -32 -36 -63 -75 -99 -123 -255 -262 -423 -380 -106 -75 -109
-85 -14 -54 344 111 671 391 837 717 84 163 119 282 156 527 20 129 27 174 31
194 1 9 6 41 10 71 4 30 9 64 11 75 2 10 6 37 9 60 3 22 8 47 10 55 2 8 7 35
10 60 3 25 10 70 15 100 5 30 12 75 15 100 3 25 8 52 10 60 2 8 7 38 10 65 8
56 7 51 30 195 9 58 18 116 20 130 2 14 8 54 14 90 6 36 13 83 16 105 3 22 8
51 10 65 5 26 7 39 24 150 13 80 17 108 46 290 30 189 28 384 -4 510 -12 47
-25 94 -30 105 -112 265 -266 433 -493 539 -91 43 -136 57 -143 46z"/>
</g>
</svg>
